#!OML:ASF G:\JayActor3\Patient Classification 1\Patient 1\Session 2\male.ASF
:FULLY-SPECIFIED
:DEGREES
3709
root -39.0836 16.8759 -2.87517 4329.4 82.8158 -2875.44
lowerback -2.83531 0.625532 2.05316
upperback 3.05124 0.716082 0.960622
thorax 4.75437 0.41918 -0.107386
lowerneck -9.11581 0.981589 2.0866
upperneck 4.61047 0.899461 2.66727
head 3.08326 0.603669 0.553047
rclavicle 1.11319e-014 -9.14409e-015
rhumerus -31.8645 -5.37994 -84.7175
rradius 26.2755
rwrist -3.75283
rhand -22.1654 5.68828
rfingers 7.12502
rthumb 4.24906 -24.2491
lclavicle 1.11319e-014 -9.14409e-015
lhumerus -30.941 3.7104 88.6439
lradius 29.5681
lwrist 8.83384
lhand -18.4422 16.0655
lfingers 7.12502
lthumb 7.84357 45.9
rfemur -11.2202 -9.18423 24.8078
rtibia 30.4426
rfoot -33.9414 -19.1237
rtoes 21.7022
lfemur -14.7291 7.41858 -23.2607
ltibia 25.9034
lfoot -14.413 8.82582
ltoes 3.81977
3710
root -39.071 16.8747 -2.87641 4329.52 83.1108 -2875.26
lowerback -2.82909 0.669175 1.96675
upperback 3.04662 0.780612 0.911435
thorax 4.74645 0.448853 -0.105497
lowerneck -9.07435 0.934312 2.00197
upperneck 4.49956 0.841673 2.83286
head 3.03661 0.578618 0.617499
rclavicle -6.95746e-016 7.55382e-015
rhumerus -31.7988 -5.35383 -84.8519
rradius 26.3825
rwrist -3.82084
rhand -22.197 5.64358
rfingers 7.12502
rthumb 4.21854 -24.2944
lclavicle -6.95746e-016 7.55382e-015
lhumerus -30.9407 3.68014 88.5884
lradius 29.5617
lwrist 8.85802
lhand -18.5168 16.0817
lfingers 7.12502
lthumb 7.77158 45.9189
rfemur -11.1031 -9.10964 24.834
rtibia 30.4484
rfoot -34.2327 -19.3402
rtoes 21.884
lfemur -14.6065 7.41862 -23.2347
ltibia 25.823
lfoot -14.321 8.52149
ltoes 3.69571
3711
root -39.058 16.874 -2.87791 4329.7 83.3757 -2875.04
lowerback -2.8355 0.712651 1.87525
upperback 3.04065 0.844973 0.856751
thorax 4.74425 0.47836 -0.106291
lowerneck -9.04641 0.889836 1.91571
upperneck 4.40503 0.787047 2.99973
head 2.99849 0.555447 0.683053
rclavicle -8.44835e-015 3.97569e-016
rhumerus -31.7159 -5.34406 -84.9896
rradius 26.485
rwrist -3.87803
rhand -22.2192 5.59037
rfingers 7.12502
rthumb 4.19712 -24.348
lclavicle -8.44835e-015 3.97569e-016
lhumerus -30.9315 3.68958 88.5075
lradius 29.5195
lwrist 8.87102
lhand -18.5881 16.0788
lfingers 7.12502
lthumb 7.70276 45.9185
rfemur -11.0027 -9.00952 24.8548
rtibia 30.46
rfoot -34.5314 -19.548
rtoes 22.0902
lfemur -14.496 7.41762 -23.2209
ltibia 25.7449
lfoot -14.23 8.24956
ltoes 3.57892
3712
root -39.0447 16.8736 -2.87993 4329.91 83.6226 -2874.8
lowerback -2.84996 0.753378 1.78921
upperback 3.0279 0.905345 0.797919
thorax 4.73959 0.506054 -0.114653
lowerneck -9.03827 0.851766 1.82695
upperneck 4.34073 0.739864 3.16592
head 2.97477 0.536472 0.749655
rclavicle -1.07344e-014 -1.03368e-014
rhumerus -31.6209 -5.36307 -85.1238
rradius 26.5732
rwrist -3.91683
rhand -22.2209 5.55737
rfingers 7.12502
rthumb 4.19543 -24.3811
lclavicle -1.07344e-014 -1.03368e-014
lhumerus -30.9236 3.72539 88.4078
lradius 29.4449
lwrist 8.87597
lhand -18.6569 16.061
lfingers 7.12502
lthumb 7.63632 45.9032
rfemur -10.9174 -8.90853 24.8732
rtibia 30.4713
rfoot -34.8208 -19.7414
rtoes 22.3037
lfemur -14.4014 7.4116 -23.215
ltibia 25.6735
lfoot -14.145 8.00116
ltoes 3.48222
3713
root -39.0305 16.8733 -2.88291 4330.05 83.8434 -2874.63
lowerback -2.87879 0.795068 1.72285
upperback 3.01248 0.965784 0.736133
thorax 4.74073 0.534511 -0.136865
lowerneck -9.02989 0.816134 1.74507
upperneck 4.28689 0.695923 3.31404
head 2.95482 0.518593 0.80944
rclavicle -7.65321e-015 -1.31198e-014
rhumerus -31.5325 -5.3634 -85.2692
rradius 26.6827
rwrist -3.98205
rhand -22.2144 5.53172
rfingers 7.12502
rthumb 4.20172 -24.4066
lclavicle -7.65321e-015 -1.31198e-014
lhumerus -30.9214 3.79337 88.2903
lradius 29.3444
lwrist 8.85421
lhand -18.7214 16.0155
lfingers 7.12502
lthumb 7.57407 45.8599
rfemur -10.8345 -8.82301 24.8891
rtibia 30.477
rfoot -35.0776 -19.9065
rtoes 22.4982
lfemur -14.3137 7.3908 -23.2103
ltibia 25.6134
lfoot -14.0847 7.78944
ltoes 3.41966
3714
root -39.0155 16.8728 -2.88699 4330.1 84.0486 -2874.56
lowerback -2.91815 0.836986 1.6815
upperback 2.99021 1.02513 0.672513
thorax 4.74122 0.563242 -0.174915
lowerneck -8.99514 0.78049 1.67705
upperneck 4.2322 0.652818 3.43375
head 2.92976 0.499878 0.857323
rclavicle 8.15017e-015 2.06736e-014
rhumerus -31.4636 -5.34888 -85.4228
rradius 26.815
rwrist -4.07574
rhand -22.2027 5.52154
rfingers 7.12502
rthumb 4.21303 -24.4165
lclavicle 8.15017e-015 2.06736e-014
lhumerus -30.9376 3.88065 88.1577
lradius 29.2254
lwrist 8.80562
lhand -18.7667 15.9643
lfingers 7.12502
lthumb 7.53033 45.8103
rfemur -10.7502 -8.76941 24.907
rtibia 30.4734
rfoot -35.2809 -20.0622
rtoes 22.6145
lfemur -14.2315 7.34589 -23.201
ltibia 25.5664
lfoot -14.0472 7.61415
ltoes 3.38688
3715
root -38.9993 16.8721 -2.89218 4330.03 84.2376 -2874.61
lowerback -2.96049 0.875403 1.66234
upperback 2.97215 1.07864 0.609954
thorax 4.74821 0.589918 -0.224545
lowerneck -9.009 0.749121 1.6285
upperneck 4.22846 0.611985 3.51419
head 2.93154 0.482247 0.890055
rclavicle 2.75317e-014 -1.19271e-015
rhumerus -31.4002 -5.29451 -85.5911
rradius 26.9796
rwrist -4.21062
rhand -22.188 5.50272
rfingers 7.12502
rthumb 4.22721 -24.4351
lclavicle 2.75317e-014 -1.19271e-015
lhumerus -30.9555 3.99156 88.0125
lradius 29.0877
lwrist 8.7291
lhand -18.7835 15.9356
lfingers 7.12502
lthumb 7.51415 45.7821
rfemur -10.6487 -8.74478 24.9225
rtibia 30.4604
rfoot -35.446 -20.1864
rtoes 22.7027
lfemur -14.1414 7.27958 -23.186
ltibia 25.5321
lfoot -14.0375 7.47124
ltoes 3.39121
